<svg width="131" height="30" viewBox="0 0 131 30" fill="none" xmlns="http://www.w3.org/2000/svg">
<path d="M16.72 8.56C14.16 7.78667 12.28 7.4 11.08 7.4C9.90667 7.4 9.09333 7.92 8.64 8.96C8.21333 10 8 11.6533 8 13.92C8 16.16 8.2 17.8 8.6 18.84C9.02667 19.8533 9.88 20.36 11.16 20.36C11.5333 20.36 12.2533 20.2533 13.32 20.04V17H11.52V12.28H19.16V26H14.44L13.8 24.72H13.64C13.1867 25.0933 12.8267 25.3733 12.56 25.56C11.8133 26.12 10.76 26.4 9.4 26.4C3.82667 26.4 1.04 22.1867 1.04 13.76C1.04 9.54667 1.77333 6.33333 3.24 4.12C4.70667 1.88 7.17333 0.759998 10.64 0.759998C13.4133 0.759998 15.8 1.18667 17.8 2.04L16.72 8.56ZM39.3022 1.16L33.3822 18.32V26H26.5822V18.32L20.7422 1.16H28.2622L30.0622 9.24H30.3822L32.1022 1.16H39.3022ZM65.0969 26H58.8169V13.04H58.4569L56.0969 26H49.6569L47.4169 13.04H47.0169V26H40.8169L41.6569 1.16H50.6569L52.8969 14.6H53.2169L55.3769 1.16H64.2569L65.0969 26ZM76.9216 17.88H75.0816V26H68.3616V1.16H76.4816C79.3349 1.16 81.4549 1.81333 82.8416 3.12C84.2282 4.42667 84.9216 6.57333 84.9216 9.56C84.9216 12.5467 84.2682 14.68 82.9616 15.96C81.6549 17.24 79.6416 17.88 76.9216 17.88ZM77.6816 12.48C77.9216 12.0267 78.0416 11.2133 78.0416 10.04C78.0416 8.86667 77.9082 8.04 77.6416 7.56C77.3749 7.08 76.8416 6.84 76.0416 6.84H75.0816V13.16H76.2016C76.9482 13.16 77.4416 12.9333 77.6816 12.48ZM100.356 26H86.9163V1.16H100.756L100.356 7.28H93.7563V11H99.4763V16.28H93.7563V20.4H100.756L100.356 26ZM109.248 13.84C109.248 16.1867 109.475 17.8667 109.928 18.88C110.408 19.8667 111.181 20.36 112.248 20.36C113.315 20.36 114.821 20.1067 116.768 19.6L117.808 25.24C115.701 26.0133 113.581 26.4 111.448 26.4C108.248 26.4 105.915 25.3467 104.448 23.24C103.008 21.1067 102.288 17.9467 102.288 13.76C102.288 9.54667 103.048 6.33333 104.568 4.12C106.088 1.88 108.568 0.759998 112.008 0.759998C114.035 0.759998 115.968 1.18667 117.808 2.04L116.728 8.24C114.648 7.54667 113.195 7.2 112.368 7.2C111.195 7.2 110.381 7.72 109.928 8.76C109.475 9.77333 109.248 11.4667 109.248 13.84Z" fill="white"/>
<rect x="120" y="23" width="4" height="3.41401" fill="#F66161"/>
</svg>
