<svg width="131" height="34" viewBox="0 0 131 34" fill="none" xmlns="http://www.w3.org/2000/svg">
<path d="M16.72 11.06C14.16 10.2867 12.28 9.9 11.08 9.9C9.90667 9.9 9.09333 10.42 8.64 11.46C8.21333 12.5 8 14.1533 8 16.42C8 18.66 8.2 20.3 8.6 21.34C9.02667 22.3533 9.88 22.86 11.16 22.86C11.5333 22.86 12.2533 22.7533 13.32 22.54V19.5H11.52V14.78H19.16V28.5H14.44L13.8 27.22H13.64C13.1867 27.5933 12.8267 27.8733 12.56 28.06C11.8133 28.62 10.76 28.9 9.4 28.9C3.82667 28.9 1.04 24.6867 1.04 16.26C1.04 12.0467 1.77333 8.83333 3.24 6.62C4.70667 4.38 7.17333 3.26 10.64 3.26C13.4133 3.26 15.8 3.68667 17.8 4.54L16.72 11.06ZM39.3022 3.66L33.3822 20.82V28.5H26.5822V20.82L20.7422 3.66H28.2622L30.0622 11.74H30.3822L32.1022 3.66H39.3022ZM65.0969 28.5H58.8169V15.54H58.4569L56.0969 28.5H49.6569L47.4169 15.54H47.0169V28.5H40.8169L41.6569 3.66H50.6569L52.8969 17.1H53.2169L55.3769 3.66H64.2569L65.0969 28.5Z" fill="#F76161"/>
<path d="M76.9216 20.38H75.0816V28.5H68.3616V3.66H76.4816C79.3349 3.66 81.4549 4.31333 82.8416 5.62C84.2282 6.92667 84.9216 9.07333 84.9216 12.06C84.9216 15.0467 84.2682 17.18 82.9616 18.46C81.6549 19.74 79.6416 20.38 76.9216 20.38ZM77.6816 14.98C77.9216 14.5267 78.0416 13.7133 78.0416 12.54C78.0416 11.3667 77.9082 10.54 77.6416 10.06C77.3749 9.58 76.8416 9.34 76.0416 9.34H75.0816V15.66H76.2016C76.9482 15.66 77.4416 15.4333 77.6816 14.98ZM100.356 28.5H86.9163V3.66H100.756L100.356 9.78H93.7563V13.5H99.4763V18.78H93.7563V22.9H100.756L100.356 28.5ZM109.248 16.34C109.248 18.6867 109.475 20.3667 109.928 21.38C110.408 22.3667 111.181 22.86 112.248 22.86C113.315 22.86 114.821 22.6067 116.768 22.1L117.808 27.74C115.701 28.5133 113.581 28.9 111.448 28.9C108.248 28.9 105.915 27.8467 104.448 25.74C103.008 23.6067 102.288 20.4467 102.288 16.26C102.288 12.0467 103.048 8.83333 104.568 6.62C106.088 4.38 108.568 3.26 112.008 3.26C114.035 3.26 115.968 3.68667 117.808 4.54L116.728 10.74C114.648 10.0467 113.195 9.7 112.368 9.7C111.195 9.7 110.381 10.22 109.928 11.26C109.475 12.2733 109.248 13.9667 109.248 16.34Z" fill="white"/>
<rect x="121" y="24.5" width="4" height="4" fill="#F66161"/>
</svg>
